<svg width="30" height="30" viewBox="0 0 30 30" fill="none" xmlns="http://www.w3.org/2000/svg">
<path d="M0 1C0 0.447716 0.447715 0 1 0H29C29.5523 0 30 0.447715 30 1V29C30 29.5523 29.5523 30 29 30H1C0.447716 30 0 29.5523 0 29V1Z" fill="url(#paint0_linear_1_77)"/>
<g clip-path="url(#clip0_1_77)">
<path d="M17.1438 11.1325C16.7357 11.1388 16.3364 11.2528 15.9863 11.4628C15.6362 11.6728 15.3478 11.9715 15.1501 12.3287C14.9524 11.9715 14.664 11.6728 14.3139 11.4628C13.9638 11.2528 13.5645 11.1388 13.1563 11.1325C12.5056 11.1607 11.8926 11.4454 11.4511 11.9243C11.0096 12.4031 10.7755 13.0372 10.8001 13.6881C10.8001 16.144 14.7716 18.9806 14.9406 19.1009L15.1501 19.2492L15.3596 19.1009C15.5285 18.9813 19.5001 16.144 19.5001 13.6881C19.5247 13.0372 19.2906 12.4031 18.8491 11.9243C18.4076 11.4454 17.7946 11.1607 17.1438 11.1325Z" fill="white"/>
</g>
<defs>
<linearGradient id="paint0_linear_1_77" x1="0" y1="0" x2="30" y2="30" gradientUnits="userSpaceOnUse">
<stop stop-color="#4000F4"/>
<stop offset="0.224829" stop-color="#603AED"/>
<stop offset="0.469313" stop-color="#7C6EE6"/>
<stop offset="0.657091" stop-color="#979FE1"/>
<stop offset="0.77684" stop-color="#A2B3DE"/>
<stop offset="0.889332" stop-color="#ADC8DC"/>
<stop offset="1" stop-color="#C0ECD7"/>
</linearGradient>
<clipPath id="clip0_1_77">
<path d="M10.8 11.8C10.8 11.2477 11.2477 10.8 11.8 10.8H18.5C19.0523 10.8 19.5 11.2477 19.5 11.8V18.5C19.5 19.0523 19.0523 19.5 18.5 19.5H11.8C11.2477 19.5 10.8 19.0523 10.8 18.5V11.8Z" fill="white"/>
</clipPath>
</defs>
</svg>
