<svg width="110" height="110" viewBox="0 0 110 110" fill="none" xmlns="http://www.w3.org/2000/svg">
<path fill-rule="evenodd" clip-rule="evenodd" d="M55.0039 0C85.3633 0 110.008 24.6441 110.008 54.9995C110.008 85.3559 85.3633 110 55.0039 110C24.6446 110 0 85.3559 0 54.9995C0 24.6441 24.6446 0 55.0039 0ZM48.5749 33.0133C48.5749 31.7902 47.5034 30.7965 46.3426 30.7965H37.0562C35.8061 30.7965 34.8239 31.7902 34.8239 33.0133V76.7162C34.8239 77.9402 35.8061 78.9339 37.0562 78.9339H46.3426C47.5034 78.9339 48.5749 77.9402 48.5749 76.7162V33.0133ZM76.0769 33.0133C76.0769 31.7902 75.0947 30.7965 73.8446 30.7965H64.5582C63.3081 30.7965 62.3259 31.7902 62.3259 33.0133V76.7162C62.3259 77.9402 63.3081 78.9339 64.5582 78.9339H73.8446C75.0947 78.9339 76.0769 77.9402 76.0769 76.7162V33.0133Z" fill="gray"/>
</svg>
