<svg width="20" height="18" viewBox="0 0 20 18" fill="none" xmlns="http://www.w3.org/2000/svg">
<path d="M13 1.25001C13 0.171006 11.726 -0.399994 10.92 0.316006L6.427 4.30901C6.28986 4.43118 6.11266 4.49879 5.929 4.49901H2.25C1.65326 4.49901 1.08097 4.73606 0.65901 5.15802C0.237053 5.57997 0 6.15227 0 6.74901V11.246C0 11.8427 0.237053 12.415 0.65901 12.837C1.08097 13.259 1.65326 13.496 2.25 13.496H5.93C6.11366 13.4962 6.29086 13.5638 6.428 13.686L10.919 17.68C11.725 18.396 13 17.824 13 16.746V1.25001ZM7.425 5.43001L11.5 1.80701V16.189L7.425 12.565C7.01319 12.1986 6.48121 11.9961 5.93 11.996H2.25C2.05109 11.996 1.86032 11.917 1.71967 11.7763C1.57902 11.6357 1.5 11.4449 1.5 11.246V6.75001C1.5 6.55109 1.57902 6.36033 1.71967 6.21968C1.86032 6.07902 2.05109 6.00001 2.25 6.00001H5.93C6.48121 5.99987 7.01319 5.79739 7.425 5.43101V5.43001Z" fill="#B3B3B3"/>
<path d="M16.992 2.89699C17.0712 2.83842 17.1611 2.79602 17.2567 2.77221C17.3523 2.7484 17.4516 2.74365 17.549 2.75823C17.6464 2.77281 17.74 2.80643 17.8244 2.85718C17.9089 2.90793 17.9824 2.9748 18.041 3.05399C19.3162 4.77388 20.0031 6.85894 20 8.99999C20.0028 11.1411 19.3155 13.2262 18.04 14.946C17.9192 15.0987 17.7437 15.1985 17.5506 15.2241C17.3576 15.2498 17.1621 15.1994 17.0056 15.0835C16.8491 14.9676 16.7437 14.7954 16.7119 14.6033C16.6801 14.4111 16.7242 14.2142 16.835 14.054C17.9192 12.5923 18.5031 10.8199 18.5 8.99999C18.5031 7.18008 17.9192 5.40769 16.835 3.94599C16.7764 3.86681 16.734 3.77686 16.7102 3.68129C16.6864 3.58571 16.6817 3.48639 16.6962 3.38898C16.7108 3.29157 16.7445 3.19798 16.7952 3.11357C16.8459 3.02915 16.9128 2.95556 16.992 2.89699Z" fill="#B3B3B3"/>
<path d="M15.143 5.37002C15.2296 5.32305 15.3246 5.2936 15.4226 5.28336C15.5206 5.27312 15.6196 5.28228 15.7141 5.31033C15.8085 5.33837 15.8965 5.38475 15.973 5.44681C16.0495 5.50887 16.1131 5.5854 16.16 5.67202C16.696 6.66202 17 7.79702 17 9.00002C17.0017 10.162 16.7129 11.306 16.16 12.328C16.0653 12.5031 15.905 12.6333 15.7143 12.6901C15.5235 12.747 15.3181 12.7257 15.143 12.631C14.968 12.5363 14.8377 12.376 14.7809 12.1853C14.7241 11.9945 14.7453 11.7891 14.84 11.614C15.26 10.837 15.5 9.94802 15.5 9.00002C15.5 8.05202 15.26 7.16302 14.84 6.38602C14.7931 6.29936 14.7637 6.2043 14.7535 6.10627C14.7433 6.00824 14.7526 5.90917 14.7807 5.81472C14.8089 5.72027 14.8554 5.63229 14.9175 5.55582C14.9797 5.47934 15.0563 5.41587 15.143 5.36902V5.37002Z" fill="#B3B3B3"/>
</svg>
